<svg xmlns="http://www.w3.org/2000/svg" viewBox="0 0 512 511">
    <path d="m368,35h-224c-44.18,0-80,35.84-80,80.04v224.12c0,44.2,35.82,80.04,80,80.04h62.4c4.42,0,8,3.59,8,8v39.78c0,6.63,7.62,10.39,12.88,6.34l68.16-52.46c1.41-1.09,3.12-1.66,4.88-1.66h67.68c44.18,0,80-35.84,80-80.04V115.04c0-44.2-35.82-80.04-80-80.04Zm-185.6,224.12c-17.68,0-32-14.33-32-32.02s14.32-32.02,32-32.02,32,14.33,32,32.02-14.32,32.02-32,32.02Zm147.2,0c-17.68,0-32-14.33-32-32.02s14.32-32.02,32-32.02,32,14.33,32,32.02-14.32,32.02-32,32.02Z" fill="#a0a5ab"/>
    <path d="m30,163.07h18v128.07h-18c-16.56,0-30-13.44-30-30v-68.07c0-16.56,13.44-30,30-30Z" fill="#a0a5ab"/>
    <path d="m464,163.07h18c16.56,0,30,13.44,30,30v68.07c0,16.56-13.44,30-30,30h-18v-128.07h0Z" fill="#a0a5ab"/>
</svg>
