<svg id="b" xmlns="http://www.w3.org/2000/svg" viewBox="0 0 320 320">
    <path d="m230,40.83H90c-27.61,0-50,22.39-50,50v140c0,27.61,22.39,50,50,50h39c2.76,0,5,2.24,5,5v24.85c0,4.14,4.76,6.49,8.05,3.96l42.6-32.77c.88-.68,1.95-1.04,3.05-1.04h42.3c27.61,0,50-22.39,50-50V90.83c0-27.61-22.39-50-50-50Zm-116,140c-11.05,0-20-8.95-20-20s8.95-20,20-20,20,8.95,20,20-8.95,20-20,20Zm92,0c-11.05,0-20-8.95-20-20s8.95-20,20-20,20,8.95,20,20-8.95,20-20,20Z"/>
    <path d="m30,120.83h0v80h0c-16.56,0-30-13.44-30-30v-20c0-16.56,13.44-30,30-30Z"/>
    <path d="m290,120.83h0c16.56,0,30,13.44,30,30v20c0,16.56-13.44,30-30,30h0v-80h0Z"/>
</svg>
